<?xml version="1.0" encoding="utf-8"?>
<!-- Generator: Adobe Illustrator 19.0.0, SVG Export Plug-In . SVG Version: 6.00 Build 0)  -->
<svg version="1.1" id="Layer_1" xmlns="http://www.w3.org/2000/svg" xmlns:xlink="http://www.w3.org/1999/xlink" x="0px" y="0px"
	 viewBox="0 0 518.6 303.8" style="enable-background:new 0 0 518.6 303.8;" xml:space="preserve">
<g id="XMLID_915_">
	<g id="XMLID_953_">
		<path id="XMLID_954_" d="M115.9,15c-2.9-0.8-5.7-1.5-8.6-2.3c-0.9-0.2-1.6-0.7-1.4-1.8c0.2-1.1,0.7-1.6,1.9-1.4
			c3.1,0.6,6.2,1.2,9.7,1.9c-0.7-0.4-1.1-0.6-1.5-0.9c-1.7-0.9-3.4-1.8-5.1-2.8c-1.1-0.6-1.6-1.4-0.8-2.6c0.8-1.2,1.6-0.6,2.5-0.2
			c2.2,1.2,4.5,2.3,6.7,3.4c0.2,0.1,0.8,0.1,0.9-0.1c0.2-0.2,0.2-0.7,0.1-0.9c-0.7-1.4-1.5-2.7-2.3-4c-0.3-0.5-0.8-0.9-0.9-1.4
			c0-0.1,0-0.3,0-0.5c0-1,1-1.8,1.9-1.4c0.1,0,0.2,0.1,0.3,0.2c0.9,0.8,1.7,1.8,2.3,2.9c1.6,2.8,4.2,4.2,7,5.4
			c1.9,0.8,3.5,2.1,5.4,2.9c1.3,0.6,2.8,1,4.2,1.1c8.4,0.6,16.8,0.6,25,2.9c2.9,0.8,5.9,1.6,8.8,2.4c0.4,0.1,0.8,0.4,1.2,0.7
			c2.9,2.2,5.8,4.6,8.7,6.8c3.5,2.6,7.1,5,10.6,7.6c2.2,1.6,4.6,3.1,6.6,4.9c1.8,1.6,3.2,3.5,4.8,5.3c0.4,0.4,0.5,1,0.9,1.4
			c0.7,0.8,1.4,0.6,1.8-0.3c2.2-4.9,6.4-6.5,11.3-7.1c3.8-0.5,7.5,0.4,11,1.7c1,0.4,1.9,1.5,2.7,2.3c0.5,0.5,0.9,1.1,1.5,1.5
			c1.2,0.8,2.5,1.3,3.6,2.1c0.5,0.4,0.7,1.1,1.1,1.7c0.4,0.7,0.7,1.5,1.3,2c2.6,2.4,3.5,5.2,2.6,8.6c-0.3,1.2-0.6,2.3-1.1,3.4
			c-0.5,1.2-1.5,1.3-2.7,0.9c-1.1-0.4-2.2-0.7-3.4-1.1c-0.5,0.8-1,1.5-1.4,2.3c-0.5,1.1-0.9,2.1-2.3,2.1c-0.3,0-0.5,0.7-0.7,1.1
			c-0.5,1.5-1.1,3-1.6,4.5c-0.4,1.3-1.2,1.7-2.5,1.2c-0.8-0.4-1.3-0.1-2,0.4c-1.1,0.8-2.6,1.3-3.9,1.8c-0.4,0.2-0.8,0.3-1.4,0.5
			c1.6,1.3,3,2.4,4.3,3.6c2.1,1.9,4.1,3.9,6,5.9c1.2,1.2,2.5,1.4,3.7,0.5c4.1-3,8.6-5.7,11.7-9.9c1.9-2.5,3.8-5.1,5.5-7.8
			c0.6-1,0.6-2.4,0.5-3.6c0-1.5-0.4-2.9-0.6-4.4c-0.4-2.5-1.7-4.3-3.7-5.8c-0.3-0.2-0.6-0.8-0.5-1.1c0.1-0.3,0.7-0.6,1.1-0.5
			c2,0.2,4,0.5,5,2.7c0.3,0.6,0.9,1.1,1.5,1.6c1.9-1.4,2.9-3.2,3.6-5.2c0.6-1.6,1.3-3.1,1.9-4.7c0.4-1,1.2-1.4,2.2-1
			c1.1,0.5,0.7,1.3,0.4,2.1c-0.2,0.6-0.4,1.1-0.4,1.8c0.6-1,1.1-2,1.7-3c0.5-0.8,1.2-1.5,2.1-0.9c0.5,0.3,0.7,1.2,0.7,1.9
			c1.3,0.8,1.2,1.9,0.7,3.1c-0.7,1.9-1.4,3.8-2.1,5.8c-0.1,0.3-0.2,0.7,0,1.2c0.7-1,1.4-2,2.1-3c0.3-0.4,0.4-1,0.8-1.3
			c0.4-0.3,1.1-0.6,1.4-0.4c0.3,0.1,0.6,0.8,0.6,1.3c0,0.5-0.2,1.1-0.5,1.6c-1.5,3.1-3,6.2-4.7,9.1c-1.1,1.9-2.7,3.4-4.1,5.1
			c-1.4,1.7-3.1,3.3-4,5.2c-4,8.3-9.4,15.5-16,21.8c-1.3,1.2-2.6,2.5-4,3.6c-1.2,1-2.6,1.3-4,0.5c-3.5-1.9-7.1-3.8-10.6-5.6
			c-4.5-2.4-8.9-5-12.6-8.4c-0.1-0.1-0.2-0.2-0.2-0.2c-2.1-1.4-2.8-1.9-3.9-3.3c-1.6-2-2.9-2.3-5.1-1c-3.4,1.9-7,3.3-10.9,3.9
			c-4,0.6-7.8,2.1-11.3,4.2c-2.3,1.4-5.1,1.8-7.6,2.9c-3.4,1.4-6.7,3-10.1,4.6c-0.2,0.1-0.4,0.3-0.8,0.6c1.9,1,3.7,1.8,5.3,3
			c2.3,1.7,4.4,3.7,6.7,5.4c6.2,4.4,11.9,9.5,17.5,14.6c1.8,1.7,3.8,3.1,5.8,4.6c4.7,3.6,3.4,8.6,0.5,11.5c-2.1,2.1-4.3,4.1-6.8,5.8
			c-7.1,5.1-14.2,10.1-21.5,14.9c-4.1,2.7-8.4,5.1-11.8,8.6c-2,2-3.6,4.4-5.2,6.8c-0.4,0.6-0.1,1.7-0.1,2.5c-0.1,0.7-0.2,1.3-0.4,2
			c-0.2,0,0.1,0.4-0.1,0.4c1.5,2.5,2.5,4.7,4,7.2c0.3,0.4,0.9,0.6,1.3,1c0.5,0.5,0.9,1,1.4,1.4c0.7,0.6,1.3,1.3,2,1.7
			c1.3,0.7,2.8,1.1,4.1,1.7c1.5,0.7,2.1,2,1.9,3.8c-0.1,1.6-1.2,2.6-2.6,2.8c-1.6,0.3-3.3,0.4-4.9,0.2c-4.2-0.5-8.2-1.6-11.8-4.1
			c-4.8-3.2-9.8-6.1-14.7-9.3c-2.1-1.4-4.1-2.9-5.8-4.7c-1.7-1.7-1.3-2.6,0.8-3.8c0.9-0.5,1.7-1.4,2.3-2.2c1.7-2.1,3.4-4.2,5.1-6.3
			c0.3-0.3,1-0.6,1.3-0.4c1.3,0.6,2-0.2,2.7-0.9c7-6.7,14.2-13.2,20.4-20.6c1.4-1.6,2.5-3.5,4.1-5c2.7-2.5,5.6-4.8,8.4-7.1
			c0.4-0.3,1-0.4,1.5-0.6c0-0.3,0-0.3,0-0.7c-1.3-0.6-2.7-1.3-4-1.8c-4.9-1.7-9.9-3.2-14.7-5c-3.5-1.3-6.8-2.9-10.1-4.5
			c-2.1-0.9-4-2-6.1-2.9c-0.4-0.2-1.1-0.2-1.6,0c-5.9,2.2-11.1,5.7-16.4,9.1c-3.5,2.3-7.2,4.3-10.9,6.4c-0.8,0.5-1.7,0.9-2.5,1.5
			c-4.3,2.8-8.9,5-13.7,6.7c-2.9,1-5.4,2.8-8.2,4.1c-2.1,1-4.2,1.8-6.4,2.6c-3.9,1.3-7.9,2.2-11.7,3.8c-7.7,3.2-15.3,6.8-22.9,10.3
			c-3.4,1.5-6.4,3.6-9.3,6c-1.9,1.6-4,2.8-5.9,4.3c-1.1,0.8-2.1,1.6-3.1,2.5c0,0-0.1,0.1-0.1,0.1c-0.5,3.7-4.6,4.2-6.3,6.9
			c-1.1,1.7-3.3,2.6-3.6,4.9c-0.1,0.4-0.5,0.9-0.9,1.2c-2.1,1.9-3.5,4.2-4.7,6.8c-1,2.2-1.9,2.8-3.7,2.5c-1.6-0.2-2.8-1.6-3.2-3.5
			c-0.8-4,0-7.8,1.2-11.6c1.4-4.3,2.6-8.7,3.7-13c1.1-4,1.9-8.1,3-12.1c0.3-1.2,0.9-2.5,2.4-2.9c0.9-0.2,1.8,0.1,2.3,0.8
			c2.8,3.6,7.9,4.1,12,2c7.4-3.8,13.5-9.5,20.5-13.8c0.8-0.5,1.6-1.2,2.3-1.8c4.2-4.1,9.3-6.5,14.9-7.8c2.8-0.7,5.5-1.5,8.3-2.4
			c4.6-1.5,8.6-3.9,12-7.5c4-4.2,8-8.4,12.3-12.3c1.7-1.6,3.8-2.8,5.8-4.1c3.8-2.3,6.8-5.2,8.3-9.6c1.4-4.4,3.5-8.5,7.2-11.5
			c2.1-1.7,4.6-2.9,7-4.1c1.5-0.8,3.2-1.3,4.8-1.9c1.1-0.4,2.2-0.6,3.2-0.9c0.8-0.2,1.6-0.5,2.3-0.9c2.3-1.4,4.2-3.3,7-3.9
			c0.2,0,0.4-0.2,0.5-0.3c4.2-3.8,9.2-6.6,12.8-11.1c0.5-0.6,1.1-1,1.7-1.5c3.7-2.9,7.4-5.9,11.1-8.7c1.8-1.3,3.7-2.4,5.5-3.7
			c1.9-1.5,3.7-3.1,5.5-4.7c0.7-0.6,0.6-1.3,0-2c-3.1-3.8-6.2-7.6-9.4-11.4c-0.4-0.5-1.1-0.9-1.8-1c-5.9-0.8-11.3-2.8-16.8-4.9
			c-5.7-2.2-11.9-2.9-18-2.9c-3.4,1.7-7.8,1-10.7,4.1c-0.6,0.7-0.9,1.8-1.4,2.6c-0.2,0.4-0.7,1-0.9,0.9c-0.6-0.2-1.4-0.6-1.5-1
			c-0.2-2-0.3-4.1,1.6-5.6c1.7-1.4,1.4-2.7-0.7-3.3c-1-0.3-2.1-0.3-3.2-0.4c-2.5-0.2-5.1-0.4-7.6-0.6c-0.9-0.1-1.5-0.5-1.4-1.6
			c0.2-1.1,0.8-1.4,1.8-1.3c2.2,0,4.4,0,6.6-0.1c0.5,0,1-0.2,1.5-0.3C116,15.3,115.9,15.2,115.9,15z"/>
	</g>
	<g id="XMLID_932_">
		<path id="XMLID_951_" d="M227.2,125.7v8.9h15.6v11.7h-15.6v9.2h16.4v11.7h-30.3V114h30.3v11.7H227.2z"/>
		<path id="XMLID_949_" d="M257.7,136.6v16.3c0,3.9,1,6.6,5.4,6.6c4.5,0,5.4-2.7,5.4-6.6v-16.3h10.9V155c0,10.1-7.1,13.2-16.3,13.2
			c-9.2,0-16.3-3.1-16.3-13.2v-18.4H257.7z"/>
		<path id="XMLID_947_" d="M297.2,141.6h0.1c2.1-3.8,5.7-5.4,9.9-5.4h2.1v10.4c-1.5-0.8-2.9-1-4.6-1c-6,0-7.5,4-7.5,9.2v12.4h-10.9
			v-30.6h10.9V141.6z"/>
		<path id="XMLID_944_" d="M346.9,151.9c0,10.4-8.6,16.3-18.4,16.3c-9.8,0-18.4-5.8-18.4-16.3c0-10.4,8.6-16.3,18.4-16.3
			S346.9,141.5,346.9,151.9z M321.5,151.9c0,3.9,2.6,6.9,7,6.9c4.4,0,7-3,7-6.9c0-3.8-2.6-6.9-7-6.9
			C324,145,321.5,148.2,321.5,151.9z"/>
		<path id="XMLID_941_" d="M362.3,140h0.1c2-3,5.7-4.5,9.2-4.5c9.1,0,15.5,7.6,15.5,16.4c0,8.8-6.3,16.2-15.3,16.2
			c-3.5,0-7.2-1.3-9.5-3.9v18.2h-10.9v-45.9h10.9V140z M361.9,151.9c0,3.9,2.6,6.9,7,6.9c4.4,0,7-3,7-6.9c0-3.8-2.6-6.9-7-6.9
			C364.5,145,361.9,148.2,361.9,151.9z"/>
		<path id="XMLID_938_" d="M423.9,153.7h-22.9c0,4.4,2.3,6.8,6.8,6.8c2.3,0,4-0.8,5.2-2.8h10.4c-0.8,3.6-3,6.2-5.8,7.9
			c-2.8,1.7-6.3,2.6-9.8,2.6c-10.1,0-17.7-5.7-17.7-16.3c0-10.2,7-16.3,16.9-16.3c10.6,0,16.8,6.6,16.8,17V153.7z M413.8,147.4
			c-0.5-2.9-3.2-4.8-6.1-4.8c-3.2,0-5.8,1.7-6.4,4.8H413.8z"/>
		<path id="XMLID_935_" d="M462.3,167.2h-10.9v-3.4h-0.1c-1.9,3-5.7,4.4-9.2,4.4c-9.1,0-15.5-7.6-15.5-16.3
			c0-8.8,6.3-16.3,15.3-16.3c3.5,0,7.2,1.3,9.5,4v-3h10.9V167.2z M437.9,151.9c0,3.9,2.6,6.9,7,6.9c4.4,0,7-3,7-6.9
			c0-3.8-2.6-6.9-7-6.9C440.4,145,437.9,148.2,437.9,151.9z"/>
		<path id="XMLID_933_" d="M480.4,140.5h0.1c2.5-3.7,5.5-5,9.8-5c8.2,0,11.5,5.2,11.5,12.7v18.9H491v-14.9c0-2.9,0.5-8.1-4.9-8.1
			c-4.4,0-5.7,3.3-5.7,7.1v15.9h-10.9v-30.6h10.9V140.5z"/>
	</g>
	<g id="XMLID_916_">
		<path id="XMLID_930_" d="M67.3,219.5c-4.7-4.3-10.6-7.2-16.8-7.2c-4.7,0-10.9,3-10.9,9.1c0,6.3,6.9,8.8,11.3,10.4l6.5,2.2
			c13.6,4.5,24.1,12.1,24.1,29.7c0,10.8-2.3,21.9-10.1,29.2C63.7,300,53.4,303,43.6,303c-12.3,0-24.3-4.6-34.3-12.4l10.9-22.8
			c6.3,6.2,13.9,11.2,22.5,11.2c6,0,12.3-3.3,12.3-10.9c0-7.9-10-10.7-15.4-12.4c-15.9-5-26.4-9.6-26.4-30.7
			c0-22,14.1-36.4,33.7-36.4c9.8,0,21.9,3.5,30.5,8.9L67.3,219.5z"/>
		<path id="XMLID_927_" d="M93.4,191.6h38.8c21,0,35.5,10.8,35.5,35.7c0,25.6-12.4,36.9-34.6,36.9h-14.4v36H93.4V191.6z
			 M118.8,241.4h4.3c9.2,0,18.3,0,18.3-13.2c0-13.7-8.4-13.8-18.3-13.8h-4.3V241.4z"/>
		<path id="XMLID_924_" d="M282,243.9c0,35.1-22.7,59.9-54,59.9s-54-24.8-54-59.9c0-32.8,25.9-55.9,54-55.9S282,211,282,243.9z
			 M200.5,244c0,18.7,12.4,32.4,27.6,32.4c15.1,0,27.6-13.7,27.6-32.4c0-15-12.4-28.7-27.6-28.7C212.9,215.3,200.5,229,200.5,244z"
			/>
		<path id="XMLID_34_" d="M375,300.2h-31.6l-23.9-41.8h-0.3v41.8h-25.4V191.6h37.9c19.3,0,33.9,10.2,33.9,33.4
			c0,15-7.5,27.9-21.4,30.7L375,300.2z M319.2,240.3h2.5c8.3,0,17.6-1.7,17.6-13.5c0-11.8-9.3-13.5-17.6-13.5h-2.5V240.3z"/>
		<path id="XMLID_31_" d="M420.7,300.2h-25.4v-84.7h-21v-23.9h67.3v23.9h-21V300.2z"/>
		<path id="XMLID_917_" d="M504.4,219.5c-4.7-4.3-10.6-7.2-16.8-7.2c-4.7,0-10.9,3-10.9,9.1c0,6.3,6.9,8.8,11.3,10.4l6.5,2.2
			c13.6,4.5,24.1,12.1,24.1,29.7c0,10.8-2.3,21.9-10.1,29.2c-7.6,7.2-17.9,10.2-27.7,10.2c-12.3,0-24.3-4.6-34.3-12.4l10.9-22.8
			c6.3,6.2,13.9,11.2,22.5,11.2c6,0,12.3-3.3,12.3-10.9c0-7.9-10-10.7-15.4-12.4c-15.9-5-26.4-9.6-26.4-30.7
			c0-22,14.1-36.4,33.7-36.4c9.8,0,21.9,3.5,30.5,8.9L504.4,219.5z"/>
	</g>
</g>
</svg>
