<?xml version="1.0" encoding="utf-8"?>
<!-- Generator: Adobe Illustrator 19.0.0, SVG Export Plug-In . SVG Version: 6.00 Build 0)  -->
<svg version="1.1" id="Layer_1" xmlns="http://www.w3.org/2000/svg" xmlns:xlink="http://www.w3.org/1999/xlink" x="0px" y="0px"
	 viewBox="0 0 220 130.5" style="enable-background:new 0 0 220 130.5;" xml:space="preserve">
<style type="text/css">
	.st0{fill:none;stroke:#FFD64F;stroke-width:4;stroke-linejoin:round;stroke-miterlimit:10;}
	.st1{fill:#D7182A;}
	.st2{filter:url(#Adobe_OpacityMaskFilter);}
	.st3{clip-path:url(#SVGID_1_);fill:url(#SVGID_3_);}
	.st4{clip-path:url(#SVGID_1_);mask:url(#SVGID_2_);fill:url(#SVGID_4_);}
	.st5{filter:url(#Adobe_OpacityMaskFilter_1_);}
	.st6{clip-path:url(#SVGID_5_);fill:url(#SVGID_7_);}
	.st7{clip-path:url(#SVGID_5_);mask:url(#SVGID_6_);fill:url(#SVGID_8_);}
	.st8{filter:url(#Adobe_OpacityMaskFilter_2_);}
	.st9{clip-path:url(#SVGID_9_);fill:url(#SVGID_11_);}
	.st10{clip-path:url(#SVGID_9_);mask:url(#SVGID_10_);fill:url(#SVGID_12_);}
	.st11{filter:url(#Adobe_OpacityMaskFilter_3_);}
	.st12{clip-path:url(#SVGID_13_);fill:url(#SVGID_15_);}
	.st13{clip-path:url(#SVGID_13_);mask:url(#SVGID_14_);fill:url(#SVGID_16_);}
	.st14{filter:url(#Adobe_OpacityMaskFilter_4_);}
	.st15{clip-path:url(#SVGID_17_);fill:url(#SVGID_19_);}
	.st16{clip-path:url(#SVGID_17_);mask:url(#SVGID_18_);fill:url(#SVGID_20_);}
	.st17{filter:url(#Adobe_OpacityMaskFilter_5_);}
	.st18{clip-path:url(#SVGID_21_);fill:url(#SVGID_23_);}
	.st19{clip-path:url(#SVGID_21_);mask:url(#SVGID_22_);fill:url(#SVGID_24_);}
</style>
<g id="XMLID_1_">
	<g>
		<path class="st0" d="M25.9,99.4l-2.7-0.9c-1.8-0.7-4.7-1.7-4.7-4.3c0-2.5,2.6-3.8,4.5-3.8c2.6,0,5.1,1.2,7,3l4.2-9.1
			c-3.6-2.3-8.6-3.7-12.7-3.7c-8.1,0-14,6-14,15.2c0,8.8,4.4,10.7,11,12.8c2.3,0.7,6.4,1.9,6.4,5.2c0,3.2-2.6,4.6-5.1,4.6
			c-3.6,0-6.7-2.1-9.4-4.7l-4.5,9.5c4.2,3.2,9.2,5.2,14.3,5.2c4.1,0,8.4-1.3,11.5-4.3c3.2-3.1,4.2-7.7,4.2-12.2
			C35.9,104.5,31.5,101.3,25.9,99.4z"/>
		<path class="st0" d="M66.1,84.1c0.3,0,0.5,0.1,0.8,0.1c0.7,0.1,1.4,0,2-0.1c0.6-0.1,1-0.5,1.1-1.2c0.1-0.8-0.2-1.3-0.8-1.6
			c-0.6-0.3-1.2-0.4-1.7-0.7c-0.3-0.2-0.6-0.5-0.8-0.7c-0.2-0.2-0.4-0.4-0.6-0.6c-0.2-0.2-0.4-0.2-0.6-0.4c-0.6-1-1.1-1.9-1.7-3
			c0.1,0,0-0.1,0-0.2c0.1-0.3,0.1-0.5,0.2-0.8c0-0.4-0.1-0.8,0.1-1c0.7-1,1.3-2,2.2-2.8c1.4-1.4,3.2-2.5,4.9-3.6c3-2,6-4.1,9-6.2
			c1-0.7,1.9-1.6,2.8-2.4c1.2-1.2,1.7-3.3-0.2-4.8c-0.8-0.6-1.7-1.2-2.4-1.9C78,50.1,75.6,48,73,46.2c-1-0.7-1.8-1.5-2.8-2.2
			c-0.7-0.5-1.4-0.8-2.2-1.2c0.2-0.1,0.2-0.2,0.3-0.2c1.4-0.6,2.8-1.3,4.2-1.9c1-0.4,2.2-0.6,3.2-1.2c1.5-0.9,3-1.5,4.7-1.8
			c1.6-0.3,3.1-0.8,4.6-1.6c0.9-0.5,1.5-0.4,2.1,0.4c0.5,0.6,0.7,0.8,1.6,1.4c0,0,0.1,0,0.1,0.1c1.6,1.4,3.4,2.5,5.3,3.5
			c1.5,0.8,2.9,1.6,4.4,2.3c0.6,0.3,1.2,0.2,1.7-0.2c0.6-0.5,1.1-1,1.7-1.5c2.8-2.6,5-5.6,6.7-9.1c0.4-0.8,1.1-1.5,1.7-2.2
			c0.6-0.7,1.2-1.4,1.7-2.1c0.7-1.2,1.3-2.5,2-3.8c0.1-0.2,0.2-0.4,0.2-0.7c0-0.2-0.1-0.5-0.3-0.5c-0.2-0.1-0.4,0-0.6,0.2
			c-0.2,0.1-0.2,0.4-0.3,0.5c-0.3,0.4-0.6,0.8-0.9,1.3c-0.1-0.2-0.1-0.4,0-0.5c0.3-0.8,0.6-1.6,0.9-2.4c0.2-0.5,0.2-1-0.3-1.3
			c0-0.3-0.1-0.7-0.3-0.8c-0.4-0.3-0.7,0-0.9,0.4c-0.2,0.4-0.5,0.8-0.7,1.3c0-0.3,0.1-0.5,0.2-0.8c0.1-0.3,0.3-0.7-0.2-0.9
			c-0.4-0.2-0.8,0-0.9,0.4c-0.3,0.6-0.5,1.3-0.8,2c-0.3,0.8-0.7,1.6-1.5,2.2c-0.2-0.2-0.5-0.4-0.6-0.7c-0.4-0.9-1.2-1-2.1-1.1
			c-0.1,0-0.4,0.1-0.4,0.2c0,0.1,0.1,0.4,0.2,0.5c0.8,0.6,1.4,1.4,1.5,2.4c0.1,0.6,0.2,1.2,0.3,1.8c0,0.5,0,1.1-0.2,1.5
			c-0.7,1.1-1.5,2.2-2.3,3.2c-1.3,1.7-3.2,2.9-4.9,4.1c-0.5,0.4-1.1,0.3-1.6-0.2c-0.8-0.8-1.6-1.7-2.5-2.5c-0.5-0.5-1.1-0.9-1.8-1.5
			c0.3-0.1,0.4-0.1,0.6-0.2c0.6-0.2,1.2-0.4,1.6-0.8c0.3-0.2,0.5-0.3,0.8-0.2c0.5,0.2,0.9,0.1,1-0.5c0.2-0.6,0.4-1.3,0.6-1.9
			c0.1-0.2,0.2-0.4,0.3-0.4c0.6,0,0.8-0.4,0.9-0.9c0.1-0.3,0.4-0.6,0.6-1c0.5,0.2,1,0.3,1.4,0.5c0.5,0.2,0.9,0.2,1.1-0.4
			c0.2-0.5,0.3-1,0.5-1.4c0.4-1.4,0-2.6-1.1-3.6c-0.2-0.2-0.4-0.5-0.5-0.8c-0.1-0.2-0.2-0.6-0.5-0.7c-0.5-0.3-1-0.6-1.5-0.9
			c-0.2-0.2-0.4-0.4-0.6-0.6c-0.4-0.3-0.7-0.8-1.1-0.9c-1.5-0.5-3-0.9-4.6-0.7c-2,0.2-3.8,0.9-4.7,3c-0.2,0.4-0.5,0.4-0.7,0.1
			c-0.2-0.2-0.2-0.4-0.4-0.6c-0.6-0.8-1.2-1.6-2-2.2c-0.9-0.8-1.8-1.4-2.8-2c-1.5-1.1-3-2.1-4.4-3.1c-1.2-0.9-2.4-1.9-3.6-2.8
			c-0.1-0.1-0.3-0.2-0.5-0.3c-1.2-0.3-2.4-0.7-3.7-1c-3.4-0.9-6.9-1-10.4-1.2c-0.6,0-1.2-0.2-1.8-0.5c-0.8-0.3-1.5-0.9-2.2-1.2
			c-1.2-0.5-2.3-1.1-2.9-2.3c-0.3-0.4-0.6-0.9-1-1.2c0,0-0.1-0.1-0.1-0.1c-0.4-0.1-0.8,0.2-0.8,0.6c0,0.1,0,0.1,0,0.2
			c0,0.2,0.3,0.4,0.4,0.6c0.3,0.5,0.7,1.1,1,1.7c0.1,0.1,0,0.3,0,0.4c-0.1,0.1-0.3,0.1-0.4,0c-0.9-0.5-1.9-0.9-2.8-1.4
			c-0.4-0.2-0.7-0.4-1.1,0.1c-0.3,0.5-0.1,0.8,0.3,1.1c0.7,0.4,1.4,0.8,2.1,1.2c0.2,0.1,0.4,0.2,0.6,0.4c-1.5-0.3-2.8-0.5-4.1-0.8
			c-0.5-0.1-0.7,0.1-0.8,0.6C46,7,46.3,7.2,46.7,7.3c1.2,0.3,2.4,0.6,3.6,0.9c0,0.1,0,0.1,0,0.1c-0.2,0-0.4,0.1-0.6,0.1
			c-0.9,0-1.8,0.1-2.8,0c-0.4,0-0.7,0.1-0.8,0.6c-0.1,0.5,0.2,0.6,0.6,0.7c1.1,0.1,2.1,0.2,3.2,0.3c0.4,0,0.9,0.1,1.3,0.2
			c0.9,0.2,1,0.8,0.3,1.4c-0.8,0.6-0.7,1.5-0.7,2.3c0,0.2,0.4,0.3,0.6,0.4c0.1,0,0.3-0.2,0.4-0.4c0.2-0.4,0.3-0.8,0.6-1.1
			c1.2-1.3,3-1,4.4-1.7c2.6,0,5.1,0.3,7.5,1.2c2.3,0.9,4.6,1.7,7,2.1c0.3,0,0.6,0.2,0.7,0.4c1.3,1.6,2.6,3.2,3.9,4.7
			c0.2,0.3,0.3,0.6,0,0.8c-0.7,0.7-1.5,1.4-2.3,2c-0.7,0.6-1.6,1-2.3,1.5c-1.6,1.2-3.1,2.4-4.6,3.6c-0.3,0.2-0.5,0.4-0.7,0.6
			c-1.5,1.9-3.6,3-5.3,4.6c-0.1,0.1-0.1,0.1-0.2,0.1c-1.1,0.2-2,1-2.9,1.6c-0.3,0.2-0.6,0.3-0.9,0.4c-0.4,0.1-0.9,0.2-1.3,0.4
			c-0.7,0.2-1.4,0.4-2,0.8c-1,0.5-2,1-2.9,1.7c-1.5,1.2-2.4,3-3,4.8c-0.6,1.8-1.9,3-3.4,4c-0.8,0.5-1.7,1-2.4,1.7
			c-1.8,1.7-3.5,3.4-5.1,5.1c-1.4,1.5-3.1,2.5-5,3.1c-1.1,0.4-2.3,0.7-3.4,1c-2.4,0.6-4.5,1.6-6.2,3.3c-0.3,0.3-0.6,0.6-0.9,0.8
			c-2.9,1.8-5.5,4.2-8.6,5.8c-1.7,0.9-3.8,0.7-5-0.8c-0.2-0.3-0.6-0.4-1-0.3c-0.6,0.2-0.9,0.7-1,1.2c-0.5,1.7-0.8,3.4-1.2,5
			c-0.5,1.8-1,3.6-1.5,5.4c-0.5,1.6-0.8,3.2-0.5,4.9c0.2,0.8,0.7,1.4,1.3,1.4c0.7,0.1,1.1-0.1,1.5-1.1c0.5-1.1,1.1-2,2-2.8
			c0.2-0.1,0.3-0.3,0.4-0.5c0.1-1,1-1.3,1.5-2c0.7-1.1,2.4-1.3,2.6-2.9c0,0,0,0,0,0c0.4-0.3,0.9-0.7,1.3-1c0.8-0.6,1.7-1.1,2.5-1.8
			c1.2-1,2.4-1.9,3.9-2.5c3.2-1.4,6.3-2.9,9.5-4.3c1.6-0.7,3.3-1,4.9-1.6c0.9-0.3,1.8-0.7,2.7-1.1c1.2-0.5,2.2-1.3,3.4-1.7
			c2-0.7,3.9-1.6,5.7-2.8c0.3-0.2,0.7-0.4,1-0.6c1.5-0.9,3.1-1.7,4.5-2.7c2.2-1.4,4.4-2.9,6.8-3.8c0.2-0.1,0.5-0.1,0.7,0
			c0.9,0.4,1.7,0.8,2.5,1.2c1.4,0.6,2.8,1.3,4.2,1.9c2,0.8,4.1,1.4,6.1,2.1c0.6,0.2,1.1,0.5,1.7,0.7c0,0.1,0,0.1,0,0.3
			c-0.2,0.1-0.5,0.1-0.6,0.2c-1.2,1-2.4,1.9-3.5,3c-0.6,0.6-1.1,1.4-1.7,2.1c-2.6,3.1-5.6,5.8-8.5,8.6c-0.3,0.3-0.6,0.6-1.1,0.4
			c-0.1-0.1-0.4,0.1-0.5,0.2c-0.7,0.9-1.4,1.8-2.1,2.6c-0.3,0.3-0.6,0.7-1,0.9c-0.9,0.5-1,0.9-0.3,1.6c0.7,0.7,1.6,1.4,2.4,1.9
			c1.9,1.2,3.8,2.3,5.7,3.6c-1.4-0.3-2.9-0.5-4.5-0.5H40.9V127h10.6v-15h6c9.2,0,14.4-4.7,14.4-15.4C71.9,90.5,69.7,86.4,66.1,84.1z
			 M53.3,102.6h-1.8V91.3h1.8c4.1,0,7.6,0.1,7.6,5.8C60.9,102.6,57.1,102.6,53.3,102.6z"/>
		<path class="st0" d="M97,80.3c-11.7,0-22.5,9.6-22.5,23.3c0,14.6,9.4,25,22.5,25c13,0,22.5-10.3,22.5-25
			C119.5,89.9,108.7,80.3,97,80.3z M97,117.1c-6.3,0-11.5-5.7-11.5-13.5c0-6.2,5.2-11.9,11.5-11.9c6.3,0,11.5,5.7,11.5,11.9
			C108.5,111.4,103.3,117.1,97,117.1z"/>
		<path class="st0" d="M154.3,95.7c0-9.7-6.1-13.9-14.1-13.9h-15.8V127H135v-17.4h0.1l10,17.4h13.2l-12.8-18.5
			C151.2,107.4,154.3,102,154.3,95.7z M136,102.1h-1V90.8h1c3.5,0,7.3,0.7,7.3,5.6C143.3,101.4,139.4,102.1,136,102.1z"/>
		<polygon class="st0" points="157.9,91.8 166.7,91.8 166.7,127 177.2,127 177.2,91.8 186,91.8 186,81.8 157.9,81.8 		"/>
		<path class="st0" d="M208,99.4l-2.7-0.9c-1.8-0.7-4.7-1.7-4.7-4.3c0-2.5,2.6-3.8,4.5-3.8c2.6,0,5.1,1.2,7,3l4.2-9.1
			c-3.6-2.3-8.6-3.7-12.7-3.7c-8.1,0-14,6-14,15.2c0,8.8,4.4,10.7,11,12.8c2.3,0.7,6.4,1.9,6.4,5.2c0,3.2-2.6,4.6-5.1,4.6
			c-3.6,0-6.7-2.1-9.4-4.7l-4.5,9.5c4.2,3.2,9.2,5.2,14.3,5.2c4.1,0,8.4-1.3,11.5-4.3c3.2-3.1,4.2-7.7,4.2-12.2
			C218,104.5,213.6,101.3,208,99.4z"/>
		<path class="st1" d="M25.9,99.4l-2.7-0.9c-1.8-0.7-4.7-1.7-4.7-4.3c0-2.5,2.6-3.8,4.5-3.8c2.6,0,5.1,1.2,7,3l4.2-9.1
			c-3.6-2.3-8.6-3.7-12.7-3.7c-8.1,0-14,6-14,15.2c0,8.8,4.4,10.7,11,12.8c2.3,0.7,6.4,1.9,6.4,5.2c0,3.2-2.6,4.6-5.1,4.6
			c-3.6,0-6.7-2.1-9.4-4.7l-4.5,9.5c4.2,3.2,9.2,5.2,14.3,5.2c4.1,0,8.4-1.3,11.5-4.3c3.2-3.1,4.2-7.7,4.2-12.2
			C35.9,104.5,31.5,101.3,25.9,99.4"/>
		<path class="st1" d="M66.1,84.1c0.3,0,0.5,0.1,0.8,0.1c0.7,0.1,1.4,0,2-0.1c0.6-0.1,1-0.5,1.1-1.2c0.1-0.8-0.2-1.3-0.8-1.6
			c-0.6-0.3-1.2-0.4-1.7-0.7c-0.3-0.2-0.6-0.5-0.8-0.7c-0.2-0.2-0.4-0.4-0.6-0.6c-0.2-0.2-0.4-0.2-0.6-0.4c-0.6-1-1.1-1.9-1.7-3
			c0.1,0,0-0.1,0-0.2c0.1-0.3,0.1-0.5,0.2-0.8c0-0.4-0.1-0.8,0.1-1c0.7-1,1.3-2,2.2-2.8c1.4-1.4,3.2-2.5,4.9-3.6c3-2,6-4.1,9-6.2
			c1-0.7,1.9-1.6,2.8-2.4c1.2-1.2,1.7-3.3-0.2-4.8c-0.8-0.6-1.7-1.2-2.4-1.9C78,50.1,75.6,48,73,46.2c-1-0.7-1.8-1.5-2.8-2.2
			c-0.7-0.5-1.4-0.8-2.2-1.2c0.2-0.1,0.2-0.2,0.3-0.2c1.4-0.6,2.8-1.3,4.2-1.9c1-0.4,2.2-0.6,3.2-1.2c1.5-0.9,3-1.5,4.7-1.8
			c1.6-0.3,3.1-0.8,4.6-1.6c0.9-0.5,1.5-0.4,2.1,0.4c0.5,0.6,0.7,0.8,1.6,1.4c0,0,0.1,0,0.1,0.1c1.6,1.4,3.4,2.5,5.3,3.5
			c1.5,0.8,2.9,1.6,4.4,2.3c0.6,0.3,1.2,0.2,1.7-0.2c0.6-0.5,1.1-1,1.7-1.5c2.8-2.6,5-5.6,6.7-9.1c0.4-0.8,1.1-1.5,1.7-2.2
			c0.6-0.7,1.2-1.4,1.7-2.1c0.7-1.2,1.3-2.5,2-3.8c0.1-0.2,0.2-0.4,0.2-0.7c0-0.2-0.1-0.5-0.3-0.5c-0.2-0.1-0.4,0-0.6,0.2
			c-0.2,0.1-0.2,0.4-0.3,0.5c-0.3,0.4-0.6,0.8-0.9,1.3c-0.1-0.2-0.1-0.4,0-0.5c0.3-0.8,0.6-1.6,0.9-2.4c0.2-0.5,0.2-1-0.3-1.3
			c0-0.3-0.1-0.7-0.3-0.8c-0.4-0.3-0.7,0-0.9,0.4c-0.2,0.4-0.5,0.8-0.7,1.3c0-0.3,0.1-0.5,0.2-0.8c0.1-0.3,0.3-0.7-0.2-0.9
			c-0.4-0.2-0.8,0-0.9,0.4c-0.3,0.6-0.5,1.3-0.8,2c-0.3,0.8-0.7,1.6-1.5,2.2c-0.2-0.2-0.5-0.4-0.6-0.7c-0.4-0.9-1.2-1-2.1-1.1
			c-0.1,0-0.4,0.1-0.4,0.2c0,0.1,0.1,0.4,0.2,0.5c0.8,0.6,1.4,1.4,1.5,2.4c0.1,0.6,0.2,1.2,0.3,1.8c0,0.5,0,1.1-0.2,1.5
			c-0.7,1.1-1.5,2.2-2.3,3.2c-1.3,1.7-3.2,2.9-4.9,4.1c-0.5,0.4-1.1,0.3-1.6-0.2c-0.8-0.8-1.6-1.7-2.5-2.5c-0.5-0.5-1.1-0.9-1.8-1.5
			c0.3-0.1,0.4-0.1,0.6-0.2c0.6-0.2,1.2-0.4,1.6-0.8c0.3-0.2,0.5-0.3,0.8-0.2c0.5,0.2,0.9,0.1,1-0.5c0.2-0.6,0.4-1.3,0.6-1.9
			c0.1-0.2,0.2-0.4,0.3-0.4c0.6,0,0.8-0.4,0.9-0.9c0.1-0.3,0.4-0.6,0.6-1c0.5,0.2,1,0.3,1.4,0.5c0.5,0.2,0.9,0.2,1.1-0.4
			c0.2-0.5,0.3-1,0.5-1.4c0.4-1.4,0-2.6-1.1-3.6c-0.2-0.2-0.4-0.5-0.5-0.8c-0.1-0.2-0.2-0.6-0.5-0.7c-0.5-0.3-1-0.6-1.5-0.9
			c-0.2-0.2-0.4-0.4-0.6-0.6c-0.4-0.3-0.7-0.8-1.1-0.9c-1.5-0.5-3-0.9-4.6-0.7c-2,0.2-3.8,0.9-4.7,3c-0.2,0.4-0.5,0.4-0.7,0.1
			c-0.2-0.2-0.2-0.4-0.4-0.6c-0.6-0.8-1.2-1.6-2-2.2c-0.9-0.8-1.8-1.4-2.8-2c-1.5-1.1-3-2.1-4.4-3.1c-1.2-0.9-2.4-1.9-3.6-2.8
			c-0.1-0.1-0.3-0.2-0.5-0.3c-1.2-0.3-2.4-0.7-3.7-1c-3.4-0.9-6.9-1-10.4-1.2c-0.6,0-1.2-0.2-1.8-0.5c-0.8-0.3-1.5-0.9-2.2-1.2
			c-1.2-0.5-2.3-1.1-2.9-2.3c-0.3-0.4-0.6-0.9-1-1.2c0,0-0.1-0.1-0.1-0.1c-0.4-0.1-0.8,0.2-0.8,0.6c0,0.1,0,0.1,0,0.2
			c0,0.2,0.3,0.4,0.4,0.6c0.3,0.5,0.7,1.1,1,1.7c0.1,0.1,0,0.3,0,0.4c-0.1,0.1-0.3,0.1-0.4,0c-0.9-0.5-1.9-0.9-2.8-1.4
			c-0.4-0.2-0.7-0.4-1.1,0.1c-0.3,0.5-0.1,0.8,0.3,1.1c0.7,0.4,1.4,0.8,2.1,1.2c0.2,0.1,0.4,0.2,0.6,0.4c-1.5-0.3-2.8-0.5-4.1-0.8
			c-0.5-0.1-0.7,0.1-0.8,0.6C46,7,46.3,7.2,46.7,7.3c1.2,0.3,2.4,0.6,3.6,0.9c0,0.1,0,0.1,0,0.1c-0.2,0-0.4,0.1-0.6,0.1
			c-0.9,0-1.8,0.1-2.8,0c-0.4,0-0.7,0.1-0.8,0.6c-0.1,0.5,0.2,0.6,0.6,0.7c1.1,0.1,2.1,0.2,3.2,0.3c0.4,0,0.9,0.1,1.3,0.2
			c0.9,0.2,1,0.8,0.3,1.4c-0.8,0.6-0.7,1.5-0.7,2.3c0,0.2,0.4,0.3,0.6,0.4c0.1,0,0.3-0.2,0.4-0.4c0.2-0.4,0.3-0.8,0.6-1.1
			c1.2-1.3,3-1,4.4-1.7c2.6,0,5.1,0.3,7.5,1.2c2.3,0.9,4.6,1.7,7,2.1c0.3,0,0.6,0.2,0.7,0.4c1.3,1.6,2.6,3.2,3.9,4.7
			c0.2,0.3,0.3,0.6,0,0.8c-0.7,0.7-1.5,1.4-2.3,2c-0.7,0.6-1.6,1-2.3,1.5c-1.6,1.2-3.1,2.4-4.6,3.6c-0.3,0.2-0.5,0.4-0.7,0.6
			c-1.5,1.9-3.6,3-5.3,4.6c-0.1,0.1-0.1,0.1-0.2,0.1c-1.1,0.2-2,1-2.9,1.6c-0.3,0.2-0.6,0.3-0.9,0.4c-0.4,0.1-0.9,0.2-1.3,0.4
			c-0.7,0.2-1.4,0.4-2,0.8c-1,0.5-2,1-2.9,1.7c-1.5,1.2-2.4,3-3,4.8c-0.6,1.8-1.9,3-3.4,4c-0.8,0.5-1.7,1-2.4,1.7
			c-1.8,1.7-3.5,3.4-5.1,5.1c-1.4,1.5-3.1,2.5-5,3.1c-1.1,0.4-2.3,0.7-3.4,1c-2.4,0.6-4.5,1.6-6.2,3.3c-0.3,0.3-0.6,0.6-0.9,0.8
			c-2.9,1.8-5.5,4.2-8.6,5.8c-1.7,0.9-3.8,0.7-5-0.8c-0.2-0.3-0.6-0.4-1-0.3c-0.6,0.2-0.9,0.7-1,1.2c-0.5,1.7-0.8,3.4-1.2,5
			c-0.5,1.8-1,3.6-1.5,5.4c-0.5,1.6-0.8,3.2-0.5,4.9c0.2,0.8,0.7,1.4,1.3,1.4c0.7,0.1,1.1-0.1,1.5-1.1c0.5-1.1,1.1-2,2-2.8
			c0.2-0.1,0.3-0.3,0.4-0.5c0.1-1,1-1.3,1.5-2c0.7-1.1,2.4-1.3,2.6-2.9c0,0,0,0,0,0c0.4-0.3,0.9-0.7,1.3-1c0.8-0.6,1.7-1.1,2.5-1.8
			c1.2-1,2.4-1.9,3.9-2.5c3.2-1.4,6.3-2.9,9.5-4.3c1.6-0.7,3.3-1,4.9-1.6c0.9-0.3,1.8-0.7,2.7-1.1c1.2-0.5,2.2-1.3,3.4-1.7
			c2-0.7,3.9-1.6,5.7-2.8c0.3-0.2,0.7-0.4,1-0.6c1.5-0.9,3.1-1.7,4.5-2.7c2.2-1.4,4.4-2.9,6.8-3.8c0.2-0.1,0.5-0.1,0.7,0
			c0.9,0.4,1.7,0.8,2.5,1.2c1.4,0.6,2.8,1.3,4.2,1.9c2,0.8,4.1,1.4,6.1,2.1c0.6,0.2,1.1,0.5,1.7,0.7c0,0.1,0,0.1,0,0.3
			c-0.2,0.1-0.5,0.1-0.6,0.2c-1.2,1-2.4,1.9-3.5,3c-0.6,0.6-1.1,1.4-1.7,2.1c-2.6,3.1-5.6,5.8-8.5,8.6c-0.3,0.3-0.6,0.6-1.1,0.4
			c-0.1-0.1-0.4,0.1-0.5,0.2c-0.7,0.9-1.4,1.8-2.1,2.6c-0.3,0.3-0.6,0.7-1,0.9c-0.9,0.5-1,0.9-0.3,1.6c0.7,0.7,1.6,1.4,2.4,1.9
			c1.9,1.2,3.8,2.3,5.7,3.6c-1.4-0.3-2.9-0.5-4.5-0.5H40.9V127h10.6v-15h6c9.2,0,14.4-4.7,14.4-15.4C71.9,90.5,69.7,86.4,66.1,84.1
			 M53.3,102.6h-1.8V91.3h1.8c4.1,0,7.6,0.1,7.6,5.8C60.9,102.6,57.1,102.6,53.3,102.6"/>
		<path class="st1" d="M97,80.3c-11.7,0-22.5,9.6-22.5,23.3c0,14.6,9.4,25,22.5,25c13,0,22.5-10.3,22.5-25
			C119.5,89.9,108.7,80.3,97,80.3 M97,117.1c-6.3,0-11.5-5.7-11.5-13.5c0-6.2,5.2-11.9,11.5-11.9c6.3,0,11.5,5.7,11.5,11.9
			C108.5,111.4,103.3,117.1,97,117.1"/>
		<path class="st1" d="M154.3,95.7c0-9.7-6.1-13.9-14.1-13.9h-15.8V127H135v-17.4h0.1l10,17.4h13.2l-12.8-18.5
			C151.2,107.4,154.3,102,154.3,95.7 M136,102.1h-1V90.8h1c3.5,0,7.3,0.7,7.3,5.6C143.3,101.4,139.4,102.1,136,102.1"/>
		<polygon class="st1" points="157.9,91.8 166.7,91.8 166.7,127 177.2,127 177.2,91.8 186,91.8 186,81.8 157.9,81.8 		"/>
		<path class="st1" d="M208,99.4l-2.7-0.9c-1.8-0.7-4.7-1.7-4.7-4.3c0-2.5,2.6-3.8,4.5-3.8c2.6,0,5.1,1.2,7,3l4.2-9.1
			c-3.6-2.3-8.6-3.7-12.7-3.7c-8.1,0-14,6-14,15.2c0,8.8,4.4,10.7,11,12.8c2.3,0.7,6.4,1.9,6.4,5.2c0,3.2-2.6,4.6-5.1,4.6
			c-3.6,0-6.7-2.1-9.4-4.7l-4.5,9.5c4.2,3.2,9.2,5.2,14.3,5.2c4.1,0,8.4-1.3,11.5-4.3c3.2-3.1,4.2-7.7,4.2-12.2
			C218,104.5,213.6,101.3,208,99.4"/>
	</g>
	<g>
		<defs>
			<path id="SVGID_31_" d="M7.5,95.8c0,8.8,4.4,10.7,11,12.8c2.3,0.7,6.4,1.9,6.4,5.2c0,3.2-2.6,4.6-5.1,4.6c-3.6,0-6.7-2.1-9.4-4.7
				l-4.5,9.5c4.2,3.2,9.2,5.2,14.3,5.2c4.1,0,8.4-1.3,11.5-4.3c3.2-3.1,4.2-7.7,4.2-12.2c0-7.3-4.4-10.5-10-12.4l-2.7-0.9
				c-1.8-0.7-4.7-1.7-4.7-4.3c0-2.5,2.6-3.8,4.5-3.8c2.6,0,5.1,1.2,7,3l4.2-9.1c-3.6-2.3-8.6-3.7-12.7-3.7
				C13.4,80.6,7.5,86.6,7.5,95.8"/>
		</defs>
		<clipPath id="SVGID_1_">
			<use xlink:href="#SVGID_31_"  style="overflow:visible;"/>
		</clipPath>
		<defs>
			<filter id="Adobe_OpacityMaskFilter" filterUnits="userSpaceOnUse" x="5.9" y="80.6" width="30" height="47.6">
				<feColorMatrix  type="matrix" values="1 0 0 0 0  0 1 0 0 0  0 0 1 0 0  0 0 0 1 0"/>
			</filter>
		</defs>
		<mask maskUnits="userSpaceOnUse" x="5.9" y="80.6" width="30" height="47.6" id="SVGID_2_">
			<g class="st2">
				
					<linearGradient id="SVGID_3_" gradientUnits="userSpaceOnUse" x1="-258.4887" y1="2557.8442" x2="-257.4887" y2="2557.8442" gradientTransform="matrix(0 -126.5271 -126.5271 0 323657.5313 -32577.2988)">
					<stop  offset="0" style="stop-color:#000000"/>
					<stop  offset="0.1229" style="stop-color:#000000"/>
					<stop  offset="0.2137" style="stop-color:#1F1F1F"/>
					<stop  offset="0.5065" style="stop-color:#7E7E7E"/>
					<stop  offset="0.7438" style="stop-color:#C3C3C3"/>
					<stop  offset="0.9137" style="stop-color:#EEEEEE"/>
					<stop  offset="1" style="stop-color:#FFFFFF"/>
				</linearGradient>
				<rect x="5.9" y="80.6" class="st3" width="30" height="47.6"/>
			</g>
		</mask>
		
			<linearGradient id="SVGID_4_" gradientUnits="userSpaceOnUse" x1="-258.4887" y1="2557.8442" x2="-257.4887" y2="2557.8442" gradientTransform="matrix(0 -126.5271 -126.5271 0 323657.5313 -32577.2988)">
			<stop  offset="0" style="stop-color:#000000"/>
			<stop  offset="0.1229" style="stop-color:#000000"/>
			<stop  offset="1" style="stop-color:#000000"/>
		</linearGradient>
		<rect x="5.9" y="80.6" class="st4" width="30" height="47.6"/>
	</g>
	<g>
		<defs>
			<path id="SVGID_36_" d="M51.5,91.3h1.8c4.1,0,7.6,0.1,7.6,5.8c0,5.5-3.8,5.5-7.6,5.5h-1.8V91.3z M50.7,2.6c0,0.1,0,0.1,0,0.2
				c0,0.2,0.3,0.4,0.4,0.6c0.3,0.5,0.7,1.1,1,1.7c0.1,0.1,0,0.3,0,0.4c-0.1,0.1-0.3,0.1-0.4,0c-0.9-0.5-1.9-0.9-2.8-1.4
				c-0.4-0.2-0.7-0.4-1,0.1c-0.3,0.5-0.1,0.8,0.3,1.1c0.7,0.4,1.4,0.8,2.1,1.2c0.2,0.1,0.4,0.2,0.6,0.4c-1.5-0.3-2.8-0.5-4.1-0.8
				c-0.5-0.1-0.7,0.1-0.8,0.6C46,7,46.3,7.2,46.7,7.3c1.2,0.3,2.4,0.6,3.6,0.9c0,0,0,0.1,0,0.1c-0.2,0-0.4,0.1-0.6,0.1
				c-0.9,0-1.8,0.1-2.8,0c-0.4,0-0.7,0.1-0.8,0.6c-0.1,0.5,0.2,0.6,0.6,0.7c1.1,0.1,2.1,0.2,3.2,0.3c0.4,0,0.9,0.1,1.3,0.2
				c0.9,0.2,1,0.8,0.3,1.4c-0.8,0.6-0.7,1.5-0.7,2.3c0,0.2,0.4,0.3,0.6,0.4c0.1,0,0.3-0.2,0.4-0.4c0.2-0.4,0.3-0.8,0.6-1.1
				c1.2-1.3,3-1,4.4-1.7c2.6,0,5.1,0.3,7.5,1.2c2.3,0.9,4.6,1.7,7,2.1c0.3,0,0.6,0.2,0.7,0.4c1.3,1.6,2.6,3.2,3.9,4.7
				c0.2,0.3,0.3,0.6,0,0.8c-0.8,0.7-1.5,1.4-2.3,2c-0.7,0.6-1.6,1-2.3,1.5c-1.6,1.2-3.1,2.4-4.6,3.6c-0.3,0.2-0.5,0.4-0.7,0.6
				c-1.5,1.9-3.6,3-5.3,4.6c-0.1,0.1-0.1,0.1-0.2,0.1c-1.1,0.2-2,1-2.9,1.6c-0.3,0.2-0.6,0.3-0.9,0.4c-0.4,0.1-0.9,0.2-1.3,0.4
				c-0.7,0.2-1.4,0.4-2,0.8c-1,0.5-2,1-2.9,1.7c-1.5,1.2-2.4,3-3,4.8c-0.6,1.8-1.9,3-3.4,4c-0.8,0.5-1.7,1-2.4,1.7
				c-1.8,1.7-3.5,3.4-5.1,5.1c-1.4,1.5-3.1,2.5-5,3.1c-1.1,0.4-2.3,0.7-3.4,1c-2.4,0.6-4.5,1.6-6.2,3.3c-0.3,0.3-0.6,0.6-0.9,0.8
				c-2.9,1.8-5.5,4.2-8.6,5.8c-1.7,0.9-3.8,0.7-5-0.8c-0.2-0.3-0.6-0.4-1-0.3c-0.6,0.2-0.9,0.7-1,1.2c-0.5,1.7-0.8,3.4-1.2,5
				c-0.5,1.8-1,3.6-1.5,5.4c-0.5,1.6-0.8,3.2-0.5,4.9c0.2,0.8,0.7,1.4,1.3,1.4c0.7,0.1,1.1-0.1,1.5-1.1c0.5-1.1,1.1-2,2-2.8
				c0.2-0.1,0.3-0.3,0.4-0.5c0.1-1,1-1.3,1.5-2c0.7-1.1,2.4-1.3,2.6-2.9c0,0,0,0,0,0c0.4-0.3,0.9-0.7,1.3-1c0.8-0.6,1.7-1.1,2.5-1.8
				c1.2-1,2.4-1.9,3.9-2.5c3.2-1.4,6.3-2.9,9.5-4.3c1.6-0.7,3.3-1,4.9-1.6c0.9-0.3,1.8-0.7,2.7-1.1c1.2-0.5,2.2-1.3,3.4-1.7
				c2-0.7,3.9-1.6,5.7-2.8c0.3-0.2,0.7-0.4,1-0.6c1.5-0.9,3.1-1.7,4.5-2.7c2.2-1.4,4.4-2.9,6.8-3.8c0.2-0.1,0.5-0.1,0.7,0
				c0.9,0.4,1.7,0.8,2.5,1.2c1.4,0.6,2.8,1.3,4.2,1.9c2,0.8,4.1,1.4,6.1,2.1c0.6,0.2,1.1,0.5,1.7,0.7c0,0.1,0,0.1,0,0.3
				c-0.2,0.1-0.5,0.1-0.6,0.2c-1.2,1-2.4,1.9-3.5,3c-0.6,0.6-1.1,1.4-1.7,2.1c-2.6,3.1-5.6,5.8-8.5,8.6c-0.3,0.3-0.6,0.6-1.1,0.4
				c-0.1-0.1-0.4,0.1-0.5,0.2c-0.7,0.9-1.4,1.8-2.1,2.6c-0.3,0.3-0.6,0.7-1,0.9c-0.9,0.5-1,0.9-0.3,1.6c0.7,0.7,1.6,1.4,2.4,1.9
				c1.9,1.2,3.8,2.4,5.7,3.6c-1.4-0.3-2.9-0.5-4.5-0.5H40.9V127h10.6v-15h6c9.2,0,14.4-4.7,14.4-15.4c0-6.2-2.2-10.3-5.7-12.6
				c0.3,0,0.5,0.1,0.8,0.1c0.7,0.1,1.4,0,2-0.1c0.6-0.1,1-0.5,1.1-1.2c0.1-0.8-0.2-1.3-0.8-1.6c-0.6-0.3-1.2-0.4-1.7-0.7
				c-0.3-0.2-0.6-0.5-0.9-0.7c-0.2-0.2-0.4-0.4-0.6-0.6c-0.2-0.2-0.4-0.2-0.6-0.4c-0.6-1-1.1-1.9-1.7-3c0.1,0,0-0.1,0-0.2
				c0.1-0.3,0.1-0.5,0.2-0.8c0-0.4-0.1-0.8,0.1-1c0.7-1,1.3-2,2.2-2.8c1.4-1.4,3.2-2.5,4.9-3.6c3-2,6-4.1,9-6.2
				c1-0.7,1.9-1.6,2.8-2.4c1.2-1.2,1.7-3.3-0.2-4.8c-0.8-0.6-1.7-1.2-2.4-1.9C78,50.1,75.6,48,73,46.2c-1-0.7-1.8-1.5-2.8-2.2
				c-0.7-0.5-1.4-0.8-2.2-1.2c0.2-0.1,0.2-0.2,0.3-0.2c1.4-0.6,2.8-1.3,4.2-1.9c1-0.4,2.2-0.6,3.2-1.2c1.5-0.9,3-1.5,4.7-1.8
				c1.6-0.3,3.1-0.8,4.6-1.6c0.9-0.5,1.5-0.4,2.1,0.4c0.4,0.6,0.7,0.8,1.6,1.4c0,0,0.1,0,0.1,0.1c1.6,1.4,3.4,2.5,5.3,3.5
				c1.5,0.8,2.9,1.6,4.4,2.3c0.6,0.3,1.2,0.2,1.7-0.2c0.6-0.5,1.1-1,1.7-1.5c2.8-2.6,5-5.6,6.7-9.1c0.4-0.8,1.1-1.5,1.7-2.2
				c0.6-0.7,1.2-1.4,1.7-2.1c0.7-1.2,1.3-2.5,2-3.8c0.1-0.2,0.2-0.4,0.2-0.7c0-0.2-0.1-0.5-0.3-0.5c-0.2-0.1-0.4,0-0.6,0.2
				c-0.2,0.1-0.2,0.4-0.3,0.5c-0.3,0.4-0.6,0.8-0.9,1.3c-0.1-0.2-0.1-0.4,0-0.5c0.3-0.8,0.6-1.6,0.9-2.4c0.2-0.5,0.2-1-0.3-1.3
				c0-0.3-0.1-0.7-0.3-0.8c-0.4-0.3-0.7,0-0.9,0.4c-0.2,0.4-0.5,0.8-0.7,1.3c0-0.3,0.1-0.5,0.2-0.8c0.1-0.3,0.3-0.7-0.2-0.9
				c-0.4-0.2-0.8,0-0.9,0.4c-0.3,0.6-0.5,1.3-0.8,2c-0.3,0.8-0.7,1.6-1.5,2.2c-0.2-0.2-0.5-0.4-0.6-0.7c-0.4-0.9-1.2-1-2.1-1.1
				c-0.1,0-0.4,0.1-0.4,0.2c0,0.1,0.1,0.4,0.2,0.5c0.8,0.6,1.4,1.4,1.5,2.4c0.1,0.6,0.2,1.2,0.3,1.8c0,0.5,0,1.1-0.2,1.5
				c-0.7,1.1-1.5,2.2-2.3,3.2c-1.3,1.7-3.2,2.8-4.9,4.1c-0.5,0.4-1.1,0.3-1.6-0.2c-0.8-0.8-1.6-1.7-2.5-2.5
				c-0.5-0.5-1.1-0.9-1.8-1.5c0.3-0.1,0.4-0.1,0.6-0.2c0.6-0.2,1.2-0.4,1.6-0.8c0.3-0.2,0.5-0.3,0.8-0.2c0.5,0.2,0.9,0.1,1-0.5
				c0.2-0.6,0.4-1.3,0.6-1.9c0.1-0.2,0.2-0.4,0.3-0.4c0.6,0,0.8-0.4,0.9-0.9c0.1-0.3,0.4-0.6,0.6-1c0.5,0.2,1,0.3,1.4,0.5
				c0.5,0.2,0.9,0.2,1.1-0.4c0.2-0.5,0.3-0.9,0.5-1.4c0.4-1.4,0-2.6-1.1-3.6c-0.2-0.2-0.4-0.5-0.5-0.8c-0.1-0.2-0.2-0.6-0.5-0.7
				c-0.5-0.3-1-0.6-1.5-0.9c-0.2-0.2-0.4-0.4-0.6-0.6c-0.4-0.3-0.7-0.8-1.1-0.9c-1.5-0.5-3-0.9-4.6-0.7c-2,0.2-3.8,0.9-4.7,3
				c-0.2,0.4-0.5,0.4-0.7,0.1c-0.2-0.2-0.2-0.4-0.4-0.6c-0.6-0.8-1.2-1.6-2-2.2c-0.9-0.8-1.8-1.4-2.8-2c-1.5-1.1-3-2.1-4.4-3.1
				c-1.2-0.9-2.4-1.9-3.6-2.8c-0.1-0.1-0.3-0.2-0.5-0.3c-1.2-0.3-2.4-0.7-3.7-1C66.6,7.5,63,7.5,59.5,7.3c-0.6,0-1.2-0.2-1.8-0.5
				c-0.8-0.3-1.5-0.9-2.2-1.2c-1.2-0.5-2.3-1.1-2.9-2.3c-0.3-0.4-0.6-0.9-1-1.2c0,0-0.1-0.1-0.1-0.1c-0.1,0-0.1,0-0.2,0
				C51,2,50.7,2.3,50.7,2.6"/>
		</defs>
		<clipPath id="SVGID_5_">
			<use xlink:href="#SVGID_36_"  style="overflow:visible;"/>
		</clipPath>
		<defs>
			<filter id="Adobe_OpacityMaskFilter_1_" filterUnits="userSpaceOnUse" x="1.8" y="2" width="112.3" height="125">
				<feColorMatrix  type="matrix" values="1 0 0 0 0  0 1 0 0 0  0 0 1 0 0  0 0 0 1 0"/>
			</filter>
		</defs>
		<mask maskUnits="userSpaceOnUse" x="1.8" y="2" width="112.3" height="125" id="SVGID_6_">
			<g class="st5">
				
					<linearGradient id="SVGID_7_" gradientUnits="userSpaceOnUse" x1="-258.4887" y1="2557.551" x2="-257.4887" y2="2557.551" gradientTransform="matrix(0 -126.5271 -126.5271 0 323657.5313 -32577.2988)">
					<stop  offset="0" style="stop-color:#000000"/>
					<stop  offset="0.1229" style="stop-color:#000000"/>
					<stop  offset="0.2137" style="stop-color:#1F1F1F"/>
					<stop  offset="0.5065" style="stop-color:#7E7E7E"/>
					<stop  offset="0.7438" style="stop-color:#C3C3C3"/>
					<stop  offset="0.9137" style="stop-color:#EEEEEE"/>
					<stop  offset="1" style="stop-color:#FFFFFF"/>
				</linearGradient>
				<rect x="1.8" y="2" class="st6" width="112.3" height="125"/>
			</g>
		</mask>
		
			<linearGradient id="SVGID_8_" gradientUnits="userSpaceOnUse" x1="-258.4887" y1="2557.551" x2="-257.4887" y2="2557.551" gradientTransform="matrix(0 -126.5271 -126.5271 0 323657.5313 -32577.2988)">
			<stop  offset="0" style="stop-color:#000000"/>
			<stop  offset="0.1229" style="stop-color:#000000"/>
			<stop  offset="1" style="stop-color:#000000"/>
		</linearGradient>
		<rect x="1.8" y="2" class="st7" width="112.3" height="125"/>
	</g>
	<g>
		<defs>
			<path id="SVGID_41_" d="M85.5,103.6c0-6.2,5.2-11.9,11.5-11.9s11.5,5.7,11.5,11.9c0,7.8-5.2,13.5-11.5,13.5
				S85.5,111.4,85.5,103.6 M74.5,103.6c0,14.6,9.4,25,22.5,25c13,0,22.5-10.3,22.5-25c0-13.7-10.8-23.3-22.5-23.3
				C85.3,80.3,74.5,89.9,74.5,103.6"/>
		</defs>
		<clipPath id="SVGID_9_">
			<use xlink:href="#SVGID_41_"  style="overflow:visible;"/>
		</clipPath>
		<defs>
			<filter id="Adobe_OpacityMaskFilter_2_" filterUnits="userSpaceOnUse" x="74.5" y="80.3" width="45" height="48.2">
				<feColorMatrix  type="matrix" values="1 0 0 0 0  0 1 0 0 0  0 0 1 0 0  0 0 0 1 0"/>
			</filter>
		</defs>
		<mask maskUnits="userSpaceOnUse" x="74.5" y="80.3" width="45" height="48.2" id="SVGID_10_">
			<g class="st8">
				
					<linearGradient id="SVGID_11_" gradientUnits="userSpaceOnUse" x1="-258.4887" y1="2557.2427" x2="-257.4887" y2="2557.2427" gradientTransform="matrix(0 -126.5271 -126.5271 0 323657.5313 -32577.2988)">
					<stop  offset="0" style="stop-color:#000000"/>
					<stop  offset="0.1229" style="stop-color:#000000"/>
					<stop  offset="0.2137" style="stop-color:#1F1F1F"/>
					<stop  offset="0.5065" style="stop-color:#7E7E7E"/>
					<stop  offset="0.7438" style="stop-color:#C3C3C3"/>
					<stop  offset="0.9137" style="stop-color:#EEEEEE"/>
					<stop  offset="1" style="stop-color:#FFFFFF"/>
				</linearGradient>
				<rect x="74.5" y="80.3" class="st9" width="45" height="48.2"/>
			</g>
		</mask>
		
			<linearGradient id="SVGID_12_" gradientUnits="userSpaceOnUse" x1="-258.4887" y1="2557.2427" x2="-257.4887" y2="2557.2427" gradientTransform="matrix(0 -126.5271 -126.5271 0 323657.5313 -32577.2988)">
			<stop  offset="0" style="stop-color:#000000"/>
			<stop  offset="0.1229" style="stop-color:#000000"/>
			<stop  offset="1" style="stop-color:#000000"/>
		</linearGradient>
		<rect x="74.5" y="80.3" class="st10" width="45" height="48.2"/>
	</g>
	<g>
		<defs>
			<path id="SVGID_46_" d="M135,90.8h1c3.5,0,7.3,0.7,7.3,5.6s-3.9,5.6-7.3,5.6h-1V90.8z M124.4,81.8V127H135v-17.4h0.1l10,17.4
				h13.2l-12.8-18.5c5.8-1.1,8.9-6.5,8.9-12.8c0-9.7-6.1-13.9-14.1-13.9H124.4z"/>
		</defs>
		<clipPath id="SVGID_13_">
			<use xlink:href="#SVGID_46_"  style="overflow:visible;"/>
		</clipPath>
		<defs>
			<filter id="Adobe_OpacityMaskFilter_3_" filterUnits="userSpaceOnUse" x="124.4" y="81.8" width="33.8" height="45.2">
				<feColorMatrix  type="matrix" values="1 0 0 0 0  0 1 0 0 0  0 0 1 0 0  0 0 0 1 0"/>
			</filter>
		</defs>
		<mask maskUnits="userSpaceOnUse" x="124.4" y="81.8" width="33.8" height="45.2" id="SVGID_14_">
			<g class="st11">
				
					<linearGradient id="SVGID_15_" gradientUnits="userSpaceOnUse" x1="-258.4887" y1="2556.8926" x2="-257.4887" y2="2556.8926" gradientTransform="matrix(0 -126.5271 -126.5271 0 323657.5313 -32577.2988)">
					<stop  offset="0" style="stop-color:#000000"/>
					<stop  offset="0.1229" style="stop-color:#000000"/>
					<stop  offset="0.2137" style="stop-color:#1F1F1F"/>
					<stop  offset="0.5065" style="stop-color:#7E7E7E"/>
					<stop  offset="0.7438" style="stop-color:#C3C3C3"/>
					<stop  offset="0.9137" style="stop-color:#EEEEEE"/>
					<stop  offset="1" style="stop-color:#FFFFFF"/>
				</linearGradient>
				<rect x="124.4" y="81.8" class="st12" width="33.8" height="45.2"/>
			</g>
		</mask>
		
			<linearGradient id="SVGID_16_" gradientUnits="userSpaceOnUse" x1="-258.4887" y1="2556.8926" x2="-257.4887" y2="2556.8926" gradientTransform="matrix(0 -126.5271 -126.5271 0 323657.5313 -32577.2988)">
			<stop  offset="0" style="stop-color:#000000"/>
			<stop  offset="0.1229" style="stop-color:#000000"/>
			<stop  offset="1" style="stop-color:#000000"/>
		</linearGradient>
		<rect x="124.4" y="81.8" class="st13" width="33.8" height="45.2"/>
	</g>
	<g>
		<defs>
			<polygon id="SVGID_51_" points="157.9,81.8 157.9,91.8 166.7,91.8 166.7,127 177.2,127 177.2,91.8 186,91.8 186,81.8 			"/>
		</defs>
		<clipPath id="SVGID_17_">
			<use xlink:href="#SVGID_51_"  style="overflow:visible;"/>
		</clipPath>
		<defs>
			<filter id="Adobe_OpacityMaskFilter_4_" filterUnits="userSpaceOnUse" x="157.9" y="81.8" width="28" height="45.2">
				<feColorMatrix  type="matrix" values="1 0 0 0 0  0 1 0 0 0  0 0 1 0 0  0 0 0 1 0"/>
			</filter>
		</defs>
		<mask maskUnits="userSpaceOnUse" x="157.9" y="81.8" width="28" height="45.2" id="SVGID_18_">
			<g class="st14">
				
					<linearGradient id="SVGID_19_" gradientUnits="userSpaceOnUse" x1="-258.4887" y1="2556.6501" x2="-257.4887" y2="2556.6501" gradientTransform="matrix(0 -126.5271 -126.5271 0 323657.5313 -32577.2988)">
					<stop  offset="0" style="stop-color:#000000"/>
					<stop  offset="0.1229" style="stop-color:#000000"/>
					<stop  offset="0.2137" style="stop-color:#1F1F1F"/>
					<stop  offset="0.5065" style="stop-color:#7E7E7E"/>
					<stop  offset="0.7438" style="stop-color:#C3C3C3"/>
					<stop  offset="0.9137" style="stop-color:#EEEEEE"/>
					<stop  offset="1" style="stop-color:#FFFFFF"/>
				</linearGradient>
				<rect x="157.9" y="81.8" class="st15" width="28" height="45.2"/>
			</g>
		</mask>
		
			<linearGradient id="SVGID_20_" gradientUnits="userSpaceOnUse" x1="-258.4887" y1="2556.6501" x2="-257.4887" y2="2556.6501" gradientTransform="matrix(0 -126.5271 -126.5271 0 323657.5313 -32577.2988)">
			<stop  offset="0" style="stop-color:#000000"/>
			<stop  offset="0.1229" style="stop-color:#000000"/>
			<stop  offset="1" style="stop-color:#000000"/>
		</linearGradient>
		<rect x="157.9" y="81.8" class="st16" width="28" height="45.2"/>
	</g>
	<g>
		<defs>
			<path id="SVGID_56_" d="M189.6,95.8c0,8.8,4.4,10.7,11,12.8c2.3,0.7,6.4,1.9,6.4,5.2c0,3.2-2.6,4.6-5.1,4.6
				c-3.6,0-6.7-2.1-9.4-4.7l-4.5,9.5c4.2,3.2,9.2,5.2,14.3,5.2c4.1,0,8.4-1.3,11.5-4.3c3.2-3.1,4.2-7.7,4.2-12.2
				c0-7.3-4.4-10.5-10-12.4l-2.7-0.9c-1.8-0.7-4.7-1.7-4.7-4.3c0-2.5,2.6-3.8,4.5-3.8c2.6,0,5.1,1.2,7,3l4.2-9.1
				c-3.6-2.3-8.6-3.7-12.7-3.7C195.5,80.6,189.6,86.6,189.6,95.8"/>
		</defs>
		<clipPath id="SVGID_21_">
			<use xlink:href="#SVGID_56_"  style="overflow:visible;"/>
		</clipPath>
		<defs>
			<filter id="Adobe_OpacityMaskFilter_5_" filterUnits="userSpaceOnUse" x="188" y="80.6" width="30" height="47.6">
				<feColorMatrix  type="matrix" values="1 0 0 0 0  0 1 0 0 0  0 0 1 0 0  0 0 0 1 0"/>
			</filter>
		</defs>
		<mask maskUnits="userSpaceOnUse" x="188" y="80.6" width="30" height="47.6" id="SVGID_22_">
			<g class="st17">
				
					<linearGradient id="SVGID_23_" gradientUnits="userSpaceOnUse" x1="-258.4887" y1="2556.405" x2="-257.4887" y2="2556.405" gradientTransform="matrix(0 -126.5271 -126.5271 0 323657.5313 -32577.2988)">
					<stop  offset="0" style="stop-color:#000000"/>
					<stop  offset="0.1229" style="stop-color:#000000"/>
					<stop  offset="0.2137" style="stop-color:#1F1F1F"/>
					<stop  offset="0.5065" style="stop-color:#7E7E7E"/>
					<stop  offset="0.7438" style="stop-color:#C3C3C3"/>
					<stop  offset="0.9137" style="stop-color:#EEEEEE"/>
					<stop  offset="1" style="stop-color:#FFFFFF"/>
				</linearGradient>
				<rect x="188" y="80.6" class="st18" width="30" height="47.6"/>
			</g>
		</mask>
		
			<linearGradient id="SVGID_24_" gradientUnits="userSpaceOnUse" x1="-258.4887" y1="2556.405" x2="-257.4887" y2="2556.405" gradientTransform="matrix(0 -126.5271 -126.5271 0 323657.5313 -32577.2988)">
			<stop  offset="0" style="stop-color:#000000"/>
			<stop  offset="0.1229" style="stop-color:#000000"/>
			<stop  offset="1" style="stop-color:#000000"/>
		</linearGradient>
		<rect x="188" y="80.6" class="st19" width="30" height="47.6"/>
	</g>
	<polygon points="96.6,54.4 96.6,58.1 103.1,58.1 103.1,62.9 96.6,62.9 96.6,66.8 103.5,66.8 103.5,71.6 90.9,71.6 90.9,49.5 
		103.5,49.5 103.5,54.4 	"/>
	<path d="M109.3,58.9v6.8c0,1.6,0.4,2.8,2.3,2.8s2.3-1.1,2.3-2.8v-6.8h4.5v7.7c0,4.2-3,5.5-6.8,5.5s-6.8-1.3-6.8-5.5v-7.7H109.3z"/>
	<path d="M125.8,61L125.8,61c0.9-1.6,2.4-2.3,4.2-2.3h0.9v4.4c-0.6-0.3-1.2-0.4-1.9-0.4c-2.5,0-3.1,1.7-3.1,3.9v5.1h-4.5V58.9h4.5
		V61z"/>
	<path d="M146.5,65.3c0,4.3-3.6,6.8-7.7,6.8c-4.1,0-7.7-2.4-7.7-6.8c0-4.3,3.6-6.8,7.7-6.8S146.5,60.9,146.5,65.3 M135.9,65.3
		c0,1.6,1.1,2.9,2.9,2.9s2.9-1.2,2.9-2.9c0-1.6-1.1-2.9-2.9-2.9S135.9,63.7,135.9,65.3"/>
	<path d="M152.9,60.3L152.9,60.3c0.9-1.3,2.4-1.9,3.9-1.9c3.8,0,6.4,3.2,6.4,6.8c0,3.7-2.6,6.8-6.4,6.8c-1.5,0-3-0.5-4-1.6V78h-4.5
		V58.9h4.5V60.3z M152.8,65.3c0,1.6,1.1,2.9,2.9,2.9c1.8,0,2.9-1.2,2.9-2.9c0-1.6-1.1-2.9-2.9-2.9C153.8,62.4,152.8,63.7,152.8,65.3
		"/>
	<path d="M178.6,66h-9.5c0,1.8,1,2.8,2.8,2.8c1,0,1.7-0.3,2.2-1.2h4.4c-0.3,1.5-1.2,2.6-2.4,3.3c-1.2,0.7-2.6,1.1-4.1,1.1
		c-4.2,0-7.4-2.4-7.4-6.8c0-4.3,2.9-6.8,7.1-6.8c4.4,0,7,2.7,7,7.1V66z M174.4,63.4c-0.2-1.2-1.3-2-2.6-2c-1.3,0-2.4,0.7-2.7,2
		H174.4z"/>
	<path d="M194.6,71.6h-4.5v-1.4H190c-0.8,1.3-2.4,1.8-3.9,1.8c-3.8,0-6.4-3.2-6.4-6.8c0-3.7,2.6-6.8,6.4-6.8c1.5,0,3,0.5,4,1.7v-1.2
		h4.5V71.6z M184.4,65.3c0,1.6,1.1,2.9,2.9,2.9s2.9-1.2,2.9-2.9c0-1.6-1.1-2.9-2.9-2.9S184.4,63.7,184.4,65.3"/>
	<path d="M202.1,60.5L202.1,60.5c1.1-1.5,2.4-2.1,4.1-2.1c3.4,0,4.8,2.2,4.8,5.3v7.9h-4.5v-6.2c0-1.2,0.2-3.4-2-3.4
		c-1.8,0-2.4,1.4-2.4,3v6.6h-4.5V58.9h4.5V60.5z"/>
</g>
</svg>
